<?xml version="1.0" encoding="UTF-8" standalone="no"?>
<svg width="174px" height="120px" viewBox="0 0 174 120" version="1.1" xmlns="http://www.w3.org/2000/svg" xmlns:xlink="http://www.w3.org/1999/xlink" xmlns:sketch="http://www.bohemiancoding.com/sketch/ns">
    <!-- Generator: Sketch 3.1.1 (8761) - http://www.bohemiancoding.com/sketch -->
    <title>sprite</title>
    <desc>Created with Sketch.</desc>
    <defs></defs>
    <g id="Page-1" stroke="none" stroke-width="1" fill="none" fill-rule="evenodd" sketch:type="MSPage">
        <g id="sprite" sketch:type="MSLayerGroup">
            <g id="Rectangle-11-copy-2-+-Shape" transform="translate(150.000000, 0.000000)" sketch:type="MSShapeGroup">
                <rect id="Rectangle-11-copy-2" fill="#E0E0E0" x="-0.347826087" y="0" width="24.3478261" height="25" rx="10"></rect>
                <path d="M10.7304344,15.7476742 C10.3204233,17.9849742 9.81988816,20.1298117 8.33716798,21.2500867 C7.87955371,17.8686242 9.00938649,15.3292367 9.53395728,12.6331992 C8.6396429,11.0657242 9.64149351,7.91062419 11.5281379,8.68818669 C13.8494534,9.64449919 9.51772539,14.5162492 12.4255738,15.1249742 C15.4617165,15.7600242 16.7012705,9.64027419 14.8185281,7.64997419 C12.0984389,4.77632419 6.90049017,7.58464919 7.5396206,11.6988242 C7.69507211,12.7048617 8.6931769,13.0098742 7.93839429,14.3981117 C6.19752473,13.9962492 5.67779228,12.5667367 5.74474881,10.6606117 C5.85228504,7.54109919 8.4370565,5.35677419 11.0293196,5.05468669 C14.307848,4.67248669 17.3848826,6.30772419 17.8097209,9.51872419 C18.2882494,13.1429617 16.3301223,17.0683117 12.8241914,16.7858867 C11.874314,16.7090242 11.4752282,16.2189242 10.7304344,15.7476742 L10.7304344,15.7476742 Z" id="Shape" fill="#FFFFFF"></path>
            </g>
            <g id="Rectangle-11-copy-+-Shape" transform="translate(99.000000, 0.000000)" sketch:type="MSShapeGroup">
                <rect id="Rectangle-11-copy" fill="#E0E0E0" x="0.434782609" y="0" width="24.3478261" height="25" rx="10"></rect>
                <path d="M16.2608696,19.1821739 C15.6696739,19.4841304 15.1344783,19.696087 14.6558913,19.8177174 C14.1765435,19.9390217 13.6577826,20.000163 13.1011304,20.000163 C12.469,20.000163 11.909913,19.9129348 11.4237174,19.7402717 C10.9381304,19.5664674 10.5240652,19.3196196 10.1801522,19.0000543 C9.83684783,18.6790217 9.59884783,18.3379348 9.4666087,17.9771196 C9.33406522,17.6159783 9.26802174,17.0926087 9.26802174,16.4071739 L9.26802174,11.1457609 L7.73913043,11.1457609 L7.73913043,9.02358696 C8.28208696,8.83184783 8.74819565,8.55809783 9.13547826,8.20005435 C9.52306522,7.84315217 9.83395652,7.41320652 10.0684565,6.91201087 C10.3029565,6.41146739 10.4641087,5.77413043 10.5526739,5 L12.5196739,5 L12.5196739,8.79173913 L15.8026739,8.79173913 L15.8026739,11.1457609 L12.5196739,11.1457609 L12.5196739,14.9926087 C12.5196739,15.8621196 12.5621304,16.4202174 12.6478043,16.6675543 C12.7322609,16.9140761 12.8906739,17.1113587 13.120913,17.25875 C13.428,17.457663 13.7773913,17.5571196 14.1712174,17.5571196 C14.8718261,17.5571196 15.5681739,17.3097826 16.2608696,16.81625 L16.2608696,19.1821739 L16.2608696,19.1821739 Z" id="Shape" fill="#FFFFFF"></path>
            </g>
            <g id="Rectangle-11-+-Shape" sketch:type="MSShapeGroup">
                <rect id="Rectangle-11" fill="#E0E0E0" x="0" y="0" width="24.3478261" height="25" rx="10"></rect>
                <path d="M15.826087,8.64051389 L13.739527,8.64051389 C13.4929322,8.64051389 13.2174122,8.97983333 13.2174122,9.43373611 L13.2174122,11.0094861 L15.826087,11.0094861 L15.826087,13.2553194 L13.2174122,13.2553194 L13.2174122,19.9998472 L10.7546783,19.9998472 L10.7546783,13.2553194 L8.52173913,13.2553194 L8.52173913,11.0094861 L10.7546783,11.0094861 L10.7546783,9.6875 C10.7546783,7.79198611 12.012633,6.25 13.739527,6.25 L15.826087,6.25 L15.826087,8.64051389 L15.826087,8.64051389 Z" id="Shape" fill="#FFFFFF"></path>
            </g>
            <g id="Rectangle-11-copy-+-Shape" transform="translate(50.000000, 0.000000)" sketch:type="MSShapeGroup">
                <rect id="Rectangle-11-copy" fill="#E0E0E0" x="0.217391304" y="0" width="24.3478261" height="25" rx="10"></rect>
                <path d="M20.9130435,7.87231667 C20.3304026,8.14768333 19.7049282,8.33358333 19.0479735,8.41736667 C19.718518,7.9891 20.2333819,7.31095 20.4759338,6.503 C19.8483951,6.89936667 19.1534234,7.18738333 18.4140699,7.34266667 C17.8217958,6.67001667 16.9776805,6.25 16.0441134,6.25 C14.250949,6.25 12.7971853,7.79916667 12.7971853,9.71023333 C12.7971853,9.98138333 12.825741,10.2455667 12.8811323,10.49875 C10.1827845,10.35465 7.78960491,8.9769 6.18876181,6.88323333 C5.90922495,7.39436667 5.74889981,7.98873333 5.74889981,8.62288333 C5.74889981,9.82335 6.3220794,10.8822833 7.19320227,11.50305 C6.66130813,11.4850833 6.16037807,11.3298 5.72258034,11.0705667 C5.72223629,11.0848667 5.72223629,11.0991667 5.72223629,11.1138333 C5.72223629,12.7906 6.84175992,14.1890667 8.32683176,14.5069667 C8.05469187,14.5861667 7.76775803,14.6285167 7.47136295,14.6285167 C7.26235539,14.6285167 7.0591966,14.6068833 6.8605104,14.5663667 C7.27370888,15.941 8.47322306,16.9416333 9.89378639,16.9693167 C8.78234783,17.8975333 7.38259924,18.4508333 5.86140265,18.4508333 C5.5994121,18.4508333 5.34103403,18.4343333 5.08695652,18.4018833 C6.52368998,19.384 8.22998299,19.9571 10.0642609,19.9571 C16.0363724,19.9571 19.3023951,14.6838833 19.3023951,10.111 C19.3023951,9.9614 19.2992987,9.81198333 19.2929338,9.6633 C19.9271815,9.176 20.4776541,8.5666 20.9130435,7.87231667 L20.9130435,7.87231667 Z" id="Shape" fill="#FFFFFF"></path>
            </g>
            <g id="Rectangle-11-copy-2-+-Shape-2" transform="translate(150.000000, 50.000000)" sketch:type="MSShapeGroup">
                <rect id="Rectangle-11-copy-2" fill="#C5C5C5" x="-0.347826087" y="0" width="24.3478261" height="25" rx="10"></rect>
                <path d="M10.7304344,15.7476742 C10.3204233,17.9849742 9.81988816,20.1298117 8.33716798,21.2500867 C7.87955371,17.8686242 9.00938649,15.3292367 9.53395728,12.6331992 C8.6396429,11.0657242 9.64149351,7.91062419 11.5281379,8.68818669 C13.8494534,9.64449919 9.51772539,14.5162492 12.4255738,15.1249742 C15.4617165,15.7600242 16.7012705,9.64027419 14.8185281,7.64997419 C12.0984389,4.77632419 6.90049017,7.58464919 7.5396206,11.6988242 C7.69507211,12.7048617 8.6931769,13.0098742 7.93839429,14.3981117 C6.19752473,13.9962492 5.67779228,12.5667367 5.74474881,10.6606117 C5.85228504,7.54109919 8.4370565,5.35677419 11.0293196,5.05468669 C14.307848,4.67248669 17.3848826,6.30772419 17.8097209,9.51872419 C18.2882494,13.1429617 16.3301223,17.0683117 12.8241914,16.7858867 C11.874314,16.7090242 11.4752282,16.2189242 10.7304344,15.7476742 L10.7304344,15.7476742 Z" id="Shape" fill="#FFFFFF"></path>
            </g>
            <g id="Rectangle-11-copy-+-Shape-2" transform="translate(99.000000, 50.000000)" sketch:type="MSShapeGroup">
                <rect id="Rectangle-11-copy" fill="#C5C5C5" x="0.434782609" y="0" width="24.3478261" height="25" rx="10"></rect>
                <path d="M16.2608696,19.1821739 C15.6696739,19.4841304 15.1344783,19.696087 14.6558913,19.8177174 C14.1765435,19.9390217 13.6577826,20.000163 13.1011304,20.000163 C12.469,20.000163 11.909913,19.9129348 11.4237174,19.7402717 C10.9381304,19.5664674 10.5240652,19.3196196 10.1801522,19.0000543 C9.83684783,18.6790217 9.59884783,18.3379348 9.4666087,17.9771196 C9.33406522,17.6159783 9.26802174,17.0926087 9.26802174,16.4071739 L9.26802174,11.1457609 L7.73913043,11.1457609 L7.73913043,9.02358696 C8.28208696,8.83184783 8.74819565,8.55809783 9.13547826,8.20005435 C9.52306522,7.84315217 9.83395652,7.41320652 10.0684565,6.91201087 C10.3029565,6.41146739 10.4641087,5.77413043 10.5526739,5 L12.5196739,5 L12.5196739,8.79173913 L15.8026739,8.79173913 L15.8026739,11.1457609 L12.5196739,11.1457609 L12.5196739,14.9926087 C12.5196739,15.8621196 12.5621304,16.4202174 12.6478043,16.6675543 C12.7322609,16.9140761 12.8906739,17.1113587 13.120913,17.25875 C13.428,17.457663 13.7773913,17.5571196 14.1712174,17.5571196 C14.8718261,17.5571196 15.5681739,17.3097826 16.2608696,16.81625 L16.2608696,19.1821739 L16.2608696,19.1821739 Z" id="Shape" fill="#FFFFFF"></path>
            </g>
            <g id="Rectangle-11-+-Shape-2" transform="translate(0.000000, 50.000000)" sketch:type="MSShapeGroup">
                <rect id="Rectangle-11" fill="#C5C5C5" x="0" y="0" width="24.3478261" height="25" rx="10"></rect>
                <path d="M15.826087,8.64051389 L13.739527,8.64051389 C13.4929322,8.64051389 13.2174122,8.97983333 13.2174122,9.43373611 L13.2174122,11.0094861 L15.826087,11.0094861 L15.826087,13.2553194 L13.2174122,13.2553194 L13.2174122,19.9998472 L10.7546783,19.9998472 L10.7546783,13.2553194 L8.52173913,13.2553194 L8.52173913,11.0094861 L10.7546783,11.0094861 L10.7546783,9.6875 C10.7546783,7.79198611 12.012633,6.25 13.739527,6.25 L15.826087,6.25 L15.826087,8.64051389 L15.826087,8.64051389 Z" id="Shape" fill="#FFFFFF"></path>
            </g>
            <g id="Rectangle-11-copy-+-Shape-2" transform="translate(50.000000, 50.000000)" sketch:type="MSShapeGroup">
                <rect id="Rectangle-11-copy" fill="#C6C6C6" x="0.217391304" y="0" width="24.3478261" height="25" rx="10"></rect>
                <path d="M20.9130435,7.87231667 C20.3304026,8.14768333 19.7049282,8.33358333 19.0479735,8.41736667 C19.718518,7.9891 20.2333819,7.31095 20.4759338,6.503 C19.8483951,6.89936667 19.1534234,7.18738333 18.4140699,7.34266667 C17.8217958,6.67001667 16.9776805,6.25 16.0441134,6.25 C14.250949,6.25 12.7971853,7.79916667 12.7971853,9.71023333 C12.7971853,9.98138333 12.825741,10.2455667 12.8811323,10.49875 C10.1827845,10.35465 7.78960491,8.9769 6.18876181,6.88323333 C5.90922495,7.39436667 5.74889981,7.98873333 5.74889981,8.62288333 C5.74889981,9.82335 6.3220794,10.8822833 7.19320227,11.50305 C6.66130813,11.4850833 6.16037807,11.3298 5.72258034,11.0705667 C5.72223629,11.0848667 5.72223629,11.0991667 5.72223629,11.1138333 C5.72223629,12.7906 6.84175992,14.1890667 8.32683176,14.5069667 C8.05469187,14.5861667 7.76775803,14.6285167 7.47136295,14.6285167 C7.26235539,14.6285167 7.0591966,14.6068833 6.8605104,14.5663667 C7.27370888,15.941 8.47322306,16.9416333 9.89378639,16.9693167 C8.78234783,17.8975333 7.38259924,18.4508333 5.86140265,18.4508333 C5.5994121,18.4508333 5.34103403,18.4343333 5.08695652,18.4018833 C6.52368998,19.384 8.22998299,19.9571 10.0642609,19.9571 C16.0363724,19.9571 19.3023951,14.6838833 19.3023951,10.111 C19.3023951,9.9614 19.2992987,9.81198333 19.2929338,9.6633 C19.9271815,9.176 20.4776541,8.5666 20.9130435,7.87231667 L20.9130435,7.87231667 Z" id="Shape" fill="#FFFFFF"></path>
            </g>
        </g>
        <g id="Rectangle-11-+-Shape" sketch:type="MSLayerGroup" transform="translate(0.000000, 100.000000)">
            <rect id="Rectangle-11" stroke="#979797" stroke-dasharray="1" fill="#FFFFFF" sketch:type="MSShapeGroup" x="0" y="0" width="20" height="20" rx="13"></rect>
            <path d="M13,6.91241111 L11.28604,6.91241111 C11.08348,6.91241111 10.85716,7.18386667 10.85716,7.54698889 L10.85716,8.80758889 L13,8.80758889 L13,10.6042556 L10.85716,10.6042556 L10.85716,15.9998778 L8.8342,15.9998778 L8.8342,10.6042556 L7,10.6042556 L7,8.80758889 L8.8342,8.80758889 L8.8342,7.75 C8.8342,6.23358889 9.86752,5 11.28604,5 L13,5 L13,6.91241111 L13,6.91241111 Z" id="Shape" fill="#4990E2" sketch:type="MSShapeGroup"></path>
        </g>
    </g>
</svg>